<svg width="50" height="50" viewBox="0 0 50 50" fill="none" xmlns="http://www.w3.org/2000/svg">
<path d="M39.8749 26.95C39.9499 26.325 39.9999 25.675 39.9999 25C39.9999 24.325 39.9499 23.675 39.8499 23.05L44.0749 19.75C44.4499 19.45 44.5499 18.9 44.3249 18.475L40.3249 11.55C40.0749 11.1 39.5499 10.95 39.0999 11.1L34.1249 13.1C33.0749 12.3 31.9749 11.65 30.7499 11.15L29.9999 5.85C29.9249 5.35 29.4999 5 28.9999 5H20.9999C20.4999 5 20.0999 5.35 20.0249 5.85L19.2749 11.15C18.0499 11.65 16.9249 12.325 15.8999 13.1L10.9249 11.1C10.4749 10.925 9.9499 11.1 9.6999 11.55L5.6999 18.475C5.4499 18.925 5.5499 19.45 5.9499 19.75L10.1749 23.05C10.0749 23.675 9.9999 24.35 9.9999 25C9.9999 25.65 10.0499 26.325 10.1499 26.95L5.9249 30.25C5.5499 30.55 5.4499 31.1 5.6749 31.525L9.6749 38.45C9.9249 38.9 10.4499 39.05 10.8999 38.9L15.8749 36.9C16.9249 37.7 18.0249 38.35 19.2499 38.85L19.9999 44.15C20.0999 44.65 20.4999 45 20.9999 45H28.9999C29.4999 45 29.9249 44.65 29.9749 44.15L30.7249 38.85C31.9499 38.35 33.0749 37.675 34.0999 36.9L39.0749 38.9C39.5249 39.075 40.0499 38.9 40.2999 38.45L44.2999 31.525C44.5499 31.075 44.4499 30.55 44.0499 30.25L39.8749 26.95ZM24.9999 32.5C20.8749 32.5 17.4999 29.125 17.4999 25C17.4999 20.875 20.8749 17.5 24.9999 17.5C29.1249 17.5 32.4999 20.875 32.4999 25C32.4999 29.125 29.1249 32.5 24.9999 32.5Z" fill="black"/>
</svg>
